<svg version="1.1" id="Layer_1" xmlns="http://www.w3.org/2000/svg" xmlns:xlink="http://www.w3.org/1999/xlink" x="0px" y="0px"
	 width="100%" viewBox="0 0 640 208" enable-background="new 0 0 640 208" xml:space="preserve">
<path fill="#000000" opacity="1.000000" stroke="none" 
	d="
M117.653168,34.669529 
	C123.610703,35.630154 125.208939,37.459137 125.254189,43.503506 
	C125.342758,55.336182 125.504349,67.175446 125.195259,79.000465 
	C125.070625,83.768738 126.802696,84.965439 131.259476,84.869896 
	C142.754089,84.623482 154.257904,84.742821 165.757462,84.812050 
	C173.411377,84.858124 175.634857,86.877815 175.865356,94.552612 
	C176.110382,102.711937 176.117310,110.888168 175.906418,119.048706 
	C175.692963,127.308754 173.501801,129.263443 165.293030,129.279892 
	C153.959778,129.302597 142.622818,129.455902 131.294952,129.208847 
	C126.800072,129.110794 125.079102,130.428497 125.191116,135.140793 
	C125.472267,146.967468 125.325188,158.805344 125.276222,170.638428 
	C125.249733,177.040314 123.096352,179.633987 116.738907,179.850571 
	C107.916946,180.151138 99.069534,180.138641 90.246765,179.845886 
	C83.043961,179.606903 80.911934,177.200180 80.830948,169.821381 
	C80.704742,158.322754 80.566055,146.815567 80.888664,135.324814 
	C81.027580,130.376968 79.266708,129.087204 74.567558,129.202393 
	C62.907963,129.488174 51.236523,129.321884 39.570019,129.282990 
	C32.725170,129.260162 30.694090,127.198631 30.664928,120.285301 
	C30.627668,111.452156 30.635614,102.618652 30.666565,93.785446 
	C30.689651,87.195839 32.934017,84.878716 39.750332,84.814041 
	C51.415997,84.703354 63.086555,84.602928 74.748276,84.836693 
	C79.254997,84.927032 80.957527,83.550812 80.849709,78.877747 
	C80.588364,67.550682 80.736557,56.212952 80.801392,44.879982 
	C80.848724,36.604992 82.870552,34.665241 91.195366,34.656158 
	C99.861755,34.646706 108.528168,34.660194 117.653168,34.669529 
z"/>
<path fill="#000000" opacity="1.000000" stroke="none" 
	d="
M308.265106,146.767838 
	C296.692749,147.859390 285.526581,147.135864 274.371979,147.316299 
	C271.465759,147.363312 270.694916,145.798462 270.697693,143.222351 
	C270.723450,119.390602 270.731171,95.558746 270.667633,71.727119 
	C270.659729,68.762115 271.773804,67.529121 274.781128,67.565071 
	C285.445679,67.692543 296.145508,67.164009 306.769623,67.849915 
	C323.560883,68.933968 338.815338,85.440468 340.217377,103.141365 
	C341.902100,124.410210 329.427460,141.629761 308.265106,146.767838 
M283.348206,85.651978 
	C283.345337,100.979881 283.462158,116.309364 283.258667,131.634613 
	C283.205231,135.660721 284.599609,136.989304 288.471619,136.737335 
	C292.287354,136.489044 296.132080,136.701553 299.963989,136.683624 
	C315.855347,136.609283 327.620361,124.135902 327.681641,107.526001 
	C327.739197,91.919609 315.488739,77.159958 300.109711,78.255905 
	C296.628876,78.503960 293.079468,78.599228 289.624329,78.209412 
	C284.420380,77.622307 282.545746,79.741295 283.348206,85.651978 
z"/>
<path fill="#000000" opacity="1.000000" stroke="none" 
	d="
M428.997620,82.009140 
	C428.997772,91.474922 428.997772,100.442902 428.997772,109.131493 
	C431.115479,110.350647 431.983612,108.986938 432.918457,108.216103 
	C435.615784,105.992043 438.648224,103.994095 440.781158,101.299515 
	C447.318695,93.040413 456.131195,94.396667 465.275238,94.724899 
	C464.563629,97.780670 462.019043,98.743927 460.308807,100.264519 
	C455.709442,104.353790 451.009857,108.353043 446.114044,112.077820 
	C443.076080,114.389137 443.199158,116.073204 445.583923,118.895775 
	C452.458618,127.032440 459.016815,135.436584 465.689758,143.743408 
	C466.297302,144.499756 467.129730,145.163956 466.988708,146.307495 
	C459.136139,149.209930 453.482269,147.630341 448.579285,141.276138 
	C444.714783,136.267807 440.803345,131.294418 436.831055,126.371422 
	C435.771820,125.058708 435.004761,122.718338 432.639221,123.797134 
	C430.615601,124.720001 429.085876,126.344208 429.049591,128.803314 
	C428.983215,133.298813 428.781738,137.805939 429.014587,142.288589 
	C429.275421,147.309082 426.245819,147.374664 422.579132,147.379974 
	C419.005524,147.385162 416.591675,147.089706 416.625885,142.407669 
	C416.796173,119.092064 416.797852,95.773712 416.611084,72.458313 
	C416.573303,67.744774 418.991211,67.463257 422.551453,67.534615 
	C426.076752,67.605270 429.422607,67.351997 429.025848,72.521057 
	C428.797119,75.500984 428.992798,78.513496 428.997620,82.009140 
z"/>
<path fill="#000000" opacity="1.000000" stroke="none" 
	d="
M253.951767,138.377747 
	C251.403183,146.058640 244.690384,147.303848 238.416382,148.117416 
	C215.278839,151.117615 200.463440,132.799286 207.676346,110.529167 
	C211.504410,98.709854 221.078690,93.035934 236.090363,93.690422 
	C247.041733,94.167885 255.592545,101.549400 258.148315,112.732002 
	C260.923218,124.873459 260.558502,125.336403 248.251678,125.333992 
	C240.260910,125.332428 232.269867,125.301102 224.279587,125.364243 
	C222.511887,125.378212 220.607071,124.860420 219.018112,126.127991 
	C219.315338,134.006149 228.030640,140.206299 236.065643,138.215210 
	C237.823639,137.779572 239.590088,137.140884 241.170425,136.266403 
	C248.185547,132.384552 248.161575,132.341232 253.951767,138.377747 
M225.750946,115.617798 
	C232.585556,115.371628 239.486725,116.107079 246.394531,115.174637 
	C244.859650,107.287651 239.191345,102.998466 231.854446,103.366867 
	C224.722717,103.724976 219.683487,108.189888 219.087204,114.911285 
	C220.861511,115.923035 222.893372,115.517334 225.750946,115.617798 
z"/>
<path fill="#000000" opacity="1.000000" stroke="none" 
	d="
M397.897583,102.146194 
	C411.967346,118.758606 404.134064,143.116425 383.634491,147.639923 
	C372.857849,150.017929 363.338043,146.969711 356.325470,138.440338 
	C349.056305,129.598831 347.905121,119.431442 352.820709,109.029251 
	C357.583130,98.951035 365.809418,93.929672 377.016602,93.625954 
	C385.146332,93.405632 391.952423,96.186340 397.897583,102.146194 
M392.127380,127.288025 
	C393.126404,124.046638 393.129822,120.723610 392.711395,117.419876 
	C391.665741,109.163422 384.263885,102.750671 376.656769,103.394318 
	C368.995575,104.042534 362.924286,110.252930 362.252136,118.129013 
	C361.348389,128.719177 365.733337,135.860580 374.560852,138.175308 
	C381.418488,139.973495 388.000061,136.107330 392.127380,127.288025 
z"/>
<path fill="#000000" opacity="1.000000" stroke="none" 
	d="
M513.187012,126.271652 
	C511.462158,114.255791 515.056763,104.557091 524.829651,98.083771 
	C533.605530,92.270874 543.254578,91.852585 552.846008,96.627777 
	C567.168518,103.758415 572.119507,121.659386 563.664734,135.567245 
	C555.695129,148.676987 536.658386,152.424881 524.203003,143.408325 
	C518.401306,139.208466 514.725220,133.705109 513.187012,126.271652 
M535.057922,104.368774 
	C527.954895,107.930122 523.800293,114.456200 524.446045,121.514931 
	C525.108826,128.760071 527.956848,134.792847 535.205444,137.569656 
	C541.452271,139.962708 547.741272,137.889908 552.109680,132.435913 
	C556.710022,126.692497 557.040894,116.655907 552.838562,110.329857 
	C549.060791,104.643059 542.891296,102.409264 535.057922,104.368774 
z"/>
<path fill="#000000" opacity="1.000000" stroke="none" 
	d="
M477.677429,128.813202 
	C477.665985,121.685013 477.640839,115.032509 477.666016,108.380211 
	C477.674286,106.200859 477.446869,104.268166 474.602600,104.318413 
	C471.198334,104.378563 470.988098,102.055817 471.061340,99.582016 
	C471.129852,97.268326 470.878784,94.656990 474.377228,94.608574 
	C477.025482,94.571930 477.735291,92.993423 477.667358,90.661377 
	C477.604431,88.501297 477.653595,86.337708 477.665497,84.175735 
	C477.697845,78.293747 481.961273,75.651100 487.500610,78.023872 
	C488.540955,78.469513 489.105408,79.142082 489.209442,80.219185 
	C489.289215,81.045235 489.283478,81.879181 489.346710,82.707253 
	C489.623138,86.327888 487.922333,90.680618 490.103760,93.392815 
	C492.283875,96.103401 496.679565,94.350426 500.092560,94.533073 
	C503.277771,94.703537 503.378143,96.743446 503.269501,99.019302 
	C503.163849,101.233147 503.881287,103.985939 500.306335,104.238716 
	C499.312378,104.309006 498.312042,104.297798 497.314514,104.307854 
	C489.355896,104.388100 489.354431,104.386917 489.350433,112.111786 
	C489.348114,116.602180 489.310272,121.093025 489.360535,125.582870 
	C489.469574,135.315948 492.659912,138.476532 502.131165,138.319290 
	C505.022369,145.475037 503.169403,148.358444 495.712677,148.307068 
	C484.996185,148.233215 478.265808,141.133743 477.677429,128.813202 
z"/>
<path fill="#000000" opacity="1.000000" stroke="none" 
	d="
M602.988770,103.374069 
	C594.819885,104.839981 590.671875,109.969971 590.384705,119.099052 
	C590.138550,126.923012 590.080750,134.765121 590.319824,142.587616 
	C590.468140,147.441956 587.615662,147.373825 584.196899,147.376999 
	C580.857361,147.380081 578.502136,147.164352 578.574463,142.666504 
	C578.805054,128.341324 578.639160,114.009979 578.670410,99.681122 
	C578.675354,97.436424 578.145935,94.470924 581.804749,94.776344 
	C584.984314,95.041771 589.461853,92.476791 590.651062,98.457138 
	C594.665039,95.019211 599.166321,93.136551 604.408691,93.708839 
	C606.902344,93.981064 610.224487,93.369644 610.080078,97.506897 
	C609.915588,102.219154 607.909607,103.896324 602.988770,103.374069 
z"/>
</svg>