<svg xmlns="http://www.w3.org/2000/svg" viewBox="0 0 128 128" style="enable-background:new 0 0 128 128" xml:space="preserve"><path transform="matrix(.1347 0 0 .1347 3874.986 -1363.247)" style="fill:#171617" d="M-28134.268 10198.376c-9.904-.278-20.645 1.116-32.361 4.885-27.758 8.652-46.59 26.516-56.771 48.009-9.764 20.934-13.111 68.803-13.111 68.803l-112.848.418s-3.348-48.148-13.25-69.221c-9.904-21.493-28.875-39.775-56.494-48.009-11.02-3.21-22.457-5.163-32.5-4.885-29.57.697-311.477 65.313-314.824 70.896-1.256 2.094 37.662 39.495 96.805 82.619l56.633-56.661 23.434 23.445-52.588 52.614c17.855 12.002 36.826 24.144 56.771 35.867l56.074-56.104 23.436 23.446-49.24 49.265c17.297 9.211 35.15 17.863 53.285 25.4l56.213-56.243 23.434 23.446-45.752 43.848c52.17 17.725 105.035 13.005 152.461 13.005h45.195c44.914 0 94.154-4.492 143.252-21.379l-37.383-36.438 23.436-22.965 47.982 48.25c18.414-7.536 36.408-15.79 54.123-24.442l-41.848-41.808 23.434-23.416 49.24 49.28c20.504-11.164 40.033-22.74 58.445-34.185l-47.426-47.447 23.434-23.443 52.447 52.476c61.793-41.031 102.943-76.339 101.549-78.433-3.21-5.58-285.114-70.196-314.687-70.893zm-185.38 290.111 4.498 565.808v.419c0 4.744 3.027 8.513 7.77 8.513 4.604-.14 7.49-4.048 7.49-8.513v-.419l33.527-565.808h-53.285zm26.642-361.007c-34.453 0-62.49 27.074-62.49 61.545 0 22.19 11.717 36.919 29.293 47.805l1.953 68.459h62.49l1.953-68.459c17.574-10.886 29.291-25.019 29.291-47.349 0-34.331-28.037-62.001-62.49-62.001zm-27.199 806.374c-7.812-2.372-14.506-5.304-20.086-8.932-11.16-7.536-15.764-15.771-15.764-23.446s4.604-15.91 15.764-23.306c4.881-3.35 11.018-6.421 18.271-8.514-.418-13.956-.836-27.912-1.256-42.007-15.482-3.489-29.012-9.072-39.613-16.189-16.879-11.583-24.83-25.261-24.83-39.217 0-13.677 7.951-27.632 24.83-39.216 10.043-6.698 22.318-12.142 36.406-15.491-.279-13.956-.559-27.912-.977-41.728-23.852-4.467-44.914-12.979-60.957-24.144-23.572-16.05-35.848-36.426-35.848-57.499-.279-38.658 26.084-31.4 52.867-39.355 12.553-3.769 22.875-8.653 30.686-16.189 3.906-3.768 8.51-8.933 8.789-17.724-2.65-22.609-25.527-26.237-41.707-26.099-7.254.279-13.252 1.257-15.484 1.396-50.354 7.396-67.791 68.245-69.047 97.971 0 35.448 20.924 66.012 51.193 86.945 10.182 6.979 21.48 12.979 33.617 17.725-2.791 1.535-5.58 3.35-8.23 5.163-23.434 15.909-40.174 40.193-40.174 68.244 0 28.331 16.74 52.335 40.174 68.245a145.44 145.44 0 0 0 19.389 11.024c-16.6 11.724-28.316 29.448-28.316 49.963 0 21.911 13.391 40.333 31.246 52.057 11.576 7.815 25.107 13.117 40.172 16.188-.418-11.999-.836-23.863-1.115-35.865zm-49.797-428.448c8.787 0 15.762 3.908 15.762 8.793 0 4.745-6.975 8.652-15.762 8.652-8.789 0-15.764-3.907-15.764-8.652 0-4.885 6.975-8.793 15.764-8.793zm242.15 88.761c-1.256-29.726-18.691-90.714-69.047-97.971-6.555-.698-13.111-1.396-18.551-1.396-15.902.279-35.988 4.886-38.639 26.099.418 8.791 4.881 13.956 8.787 17.724 7.951 7.536 18.133 12.421 30.688 16.189 26.781 7.955 53.285.697 52.865 39.355 0 21.073-12.273 41.449-35.848 57.499-16.041 11.164-37.104 19.677-60.957 24.144-.418 13.815-.836 27.771-1.254 41.728 13.809 3.35 21.131 8.513 30.756 15.073 17.016 11.164 20.711 24.98 20.711 38.657V10772.245c0 13.956-2.998 27.634-19.875 39.217-10.461 7.117-21.654 12.979-37.137 16.329-.42 13.955.609 27.911.191 41.867 6.695 2.093 8.828 4.885 13.709 8.094 11.438 7.397 12.594 15.492 12.594 23.028v.697c0 7.676-.014 15.91-11.172 23.446-5.301 3.628-10.26 6.56-18.07 8.932-.279 12.002.658 23.865.24 35.867 14.926-3.071 22.855-8.373 34.154-16.188 17.715-11.444 25.365-29.588 25.365-50.939v-2.792c0-19.817-5.926-36.844-21.828-48.288 6.975-3.209 9.713-6.978 15.852-11.024 23.293-15.91 36.494-39.774 36.494-67.407v-2.931c0-27.772-11.002-51.219-34.576-66.988-2.371-1.396-1.246-2.931-3.617-4.188 12.414-4.884 25.111-10.885 35.154-17.863 30.271-20.935 53.011-51.499 53.011-86.947zm-82.996-71.315c-8.787 0-15.762-3.907-15.762-8.652 0-4.885 6.975-8.793 15.762-8.793 8.789 0 15.762 3.908 15.762 8.793 0 4.744-6.973 8.652-15.762 8.652z"/></svg>