<svg version="1.1" id="Layer_2" xmlns="http://www.w3.org/2000/svg" xmlns:xlink="http://www.w3.org/1999/xlink" x="0" y="0" viewBox="0 0 80.3 80.3" style="enable-background:new 0 0 80.3 80.3" xml:space="preserve"><style>.st2{fill:#55ab99}.st4{fill:#fff}.st5{fill:#ed6b5a}</style><circle class="st2" cx="40.2" cy="40.2" r="40.2"/><path d="M70.3 52.6c0 .6-.5 1-1 1H14.8c-.6 0-1-.5-1-1V17.4c0-.6.5-1 1-1h54.5c.6 0 1 .5 1 1v35.2z" style="fill:#2f4555"/><path class="st4" d="M19.9 18.4h44.3v33.1H19.9z"/><path class="st5" d="M16.4 31.6H18v6.7h-1.6z"/><g><circle class="st5" cx="42" cy="35" r="14.1"/><path class="st4" d="M41.3 20.7h1.5v28.6h-1.5z"/><path d="M40.5 40.3h-1.6l-1.2-3.2h-4.5L32 40.3h-1.5l4.1-10.6h1.5l4.4 10.6zm-3.2-4.4L35.4 31l-1.8 4.9h3.7z" style="fill:#0c2c48"/><g><path d="M52.1 37.2c0 1-.3 1.8-1 2.3-.7.5-1.7.8-3 .8h-4V29.7h3.8c.6 0 1.1.1 1.5.2.5.1.8.3 1.1.5.3.2.5.5.7.9.2.3.2.7.2 1.1 0 1-.5 1.8-1.5 2.3.3.1.6.2.9.4.3.2.5.4.6.6.2.2.3.5.4.7.2.2.3.5.3.8zm-6.6-3.1h2.4c.8 0 1.4-.1 1.7-.4.4-.2.5-.7.5-1.2 0-.3 0-.5-.1-.7-.1-.2-.2-.4-.4-.5-.2-.1-.4-.2-.7-.3-.3-.1-.7-.1-1.2-.1h-2.2v3.2zm0 4.9h2.6c1.7 0 2.5-.6 2.5-1.8 0-.3 0-.6-.1-.8-.1-.2-.2-.4-.5-.6-.2-.2-.5-.3-.8-.3-.3-.1-.8-.1-1.3-.1h-2.4V39z" style="fill:#f1cc4b"/></g></g><g><defs><circle id="SVGID_1_" cx="40.2" cy="40.2" r="40.2"/></defs><clipPath id="SVGID_2_"><use xlink:href="#SVGID_1_" style="overflow:visible"/></clipPath><path class="st2" d="m14.1 76.1-19.2-9.9L5.5 45.7l.4.2c1.1-.9 2.8-1 4.1-.3.3.2.6.4.8.6.7-.8 1.8-1.2 2.9-1.2.6 0 1.3.2 1.8.4.4.2.8.5 1.1.8 1.1-.8 2.8-.9 4.1-.3.3.1.5.3.7.5l3.7-7.1c.7-1.3 2-2.1 3.5-2.1.6 0 1.3.2 1.8.4.9.5 1.6 1.3 2 2.3.3 1 .2 2.1-.3 3L23.8 59l1.6-.7c.5-.2 1.1-.3 1.6-.3 1.6 0 3 .9 3.6 2.3.4 1 .5 2 .1 3s-1.1 1.8-2.1 2.2l-11.8 5.3-2.7 5.3zM-1.1 64.9l13.9 7.2 1.8-3.6 12.8-5.7c.2-.1.4-.3.5-.6.1-.3.1-.5 0-.8-.2-.5-.8-.7-1.3-.5L17.3 65l12.2-23.6c.1-.2.1-.5.1-.8-.1-.3-.3-.5-.5-.6-.5-.3-1.1 0-1.4.4L19 57.5l.9-8c0-.4-.2-.8-.5-1-.5-.3-1.1 0-1.4.4l-4.1 8 .9-8c0-.4-.2-.8-.5-1-.5-.3-1.1 0-1.4.4l-4.5 8.8.9-8c0-.4-.2-.8-.5-1-.5-.2-1-.1-1.3.4l-.1.1-8.5 16.3z"/><path d="m13.2 74.4-16.6-8.5L5.8 48c.7-1.1 2.1-1.4 3.2-.9.9.5 1.4 1.5 1.3 2.5l.9-1.7c.6-1.2 2.1-1.7 3.4-1.1.9.5 1.4 1.5 1.3 2.5l.5-.9c.6-1.2 2.1-1.7 3.4-1.1.9.5 1.4 1.5 1.3 2.5l5-9.7c.6-1.2 2.1-1.7 3.4-1.1 1.2.6 1.7 2.1 1.1 3.4L20.3 62.3l5.4-2.4c1.3-.6 2.7 0 3.3 1.3.6 1.3 0 2.7-1.3 3.3L15.4 70l-2.2 4.4z" style="clip-path:url(#SVGID_2_);fill:#f6a09c"/></g></svg>